<svg width="70" height="70" viewBox="0 0 70 70" fill="none" xmlns="http://www.w3.org/2000/svg">
<circle cx="35" cy="35" r="34.5" fill="#4D2B57" stroke="url(#paint0_linear_109_1448)"/>
<g clip-path="url(#clip0_109_1448)">
<path d="M45.0383 28.6492L38.4758 22.0867C38.3887 21.9997 38.2852 21.9307 38.1714 21.8836C38.0576 21.8366 37.9357 21.8124 37.8125 21.8125H26.5625C26.0652 21.8125 25.5883 22.01 25.2367 22.3617C24.885 22.7133 24.6875 23.1902 24.6875 23.6875V44.3125C24.6875 44.8098 24.885 45.2867 25.2367 45.6383C25.5883 45.99 26.0652 46.1875 26.5625 46.1875H43.4375C43.9348 46.1875 44.4117 45.99 44.7633 45.6383C45.115 45.2867 45.3125 44.8098 45.3125 44.3125V29.3125C45.3126 29.1893 45.2884 29.0674 45.2414 28.9536C45.1943 28.8398 45.1253 28.7363 45.0383 28.6492ZM38.75 25.0129L42.1121 28.375H38.75V25.0129ZM43.4375 44.3125H26.5625V23.6875H36.875V29.3125C36.875 29.5611 36.9738 29.7996 37.1496 29.9754C37.3254 30.1512 37.5639 30.25 37.8125 30.25H43.4375V44.3125Z" fill="#E945D0"/>
<g filter="url(#filter0_d_109_1448)">
<rect x="28.75" y="39" width="7.5" height="2.5" rx="1.25" fill="#E945D0"/>
</g>
<rect x="28.75" y="35.25" width="7.5" height="2.5" rx="1.25" fill="#E945D0"/>
</g>
<defs>
<filter id="filter0_d_109_1448" x="18.75" y="29" width="27.5" height="22.5" filterUnits="userSpaceOnUse" color-interpolation-filters="sRGB">
<feFlood flood-opacity="0" result="BackgroundImageFix"/>
<feColorMatrix in="SourceAlpha" type="matrix" values="0 0 0 0 0 0 0 0 0 0 0 0 0 0 0 0 0 0 127 0" result="hardAlpha"/>
<feMorphology radius="2" operator="dilate" in="SourceAlpha" result="effect1_dropShadow_109_1448"/>
<feOffset/>
<feGaussianBlur stdDeviation="4"/>
<feComposite in2="hardAlpha" operator="out"/>
<feColorMatrix type="matrix" values="0 0 0 0 0.913725 0 0 0 0 0.270588 0 0 0 0 0.815686 0 0 0 1 0"/>
<feBlend mode="normal" in2="BackgroundImageFix" result="effect1_dropShadow_109_1448"/>
<feBlend mode="normal" in="SourceGraphic" in2="effect1_dropShadow_109_1448" result="shape"/>
</filter>
<linearGradient id="paint0_linear_109_1448" x1="35" y1="0" x2="35" y2="70" gradientUnits="userSpaceOnUse">
<stop stop-color="#E945D0"/>
<stop offset="1" stop-color="#E945D0" stop-opacity="0"/>
</linearGradient>
<clipPath id="clip0_109_1448">
<rect width="30" height="30" fill="white" transform="translate(20 19)"/>
</clipPath>
</defs>
</svg>
